<svg xmlns="http://www.w3.org/2000/svg" xmlns:xlink="http://www.w3.org/1999/xlink" version="1.1" id="Layer_1" x="0px" y="0px" width="90px" height="90px" viewBox="0 0 90 90" enable-background="new 0 0 90 90" xml:space="preserve">
<g>
	<path d="M45,90C20.187,90,0,69.813,0,45S20.187,0,45,0s45,20.187,45,45S69.813,90,45,90z M45,7.485   C24.314,7.485,7.485,24.314,7.485,45S24.314,82.515,45,82.515c20.686,0,37.515-16.829,37.515-37.515S65.686,7.485,45,7.485z"/>
</g>
<g>
	<path d="M61.071,47.578c0,2.75-2.25,5-5,5h-22c-2.75,0-5-2.25-5-5v-5c0-2.75,2.25-5,5-5h22c2.75,0,5,2.25,5,5V47.578z"/>
</g>
</svg>