<?xml version="1.0" encoding="utf-8"?>
<!-- Generator: Adobe Illustrator 15.1.0, SVG Export Plug-In . SVG Version: 6.00 Build 0)  -->
<!DOCTYPE svg PUBLIC "-//W3C//DTD SVG 1.1//EN" "http://www.w3.org/Graphics/SVG/1.1/DTD/svg11.dtd">
<svg version="1.1" id="Layer_1" xmlns="http://www.w3.org/2000/svg" xmlns:xlink="http://www.w3.org/1999/xlink" x="0px" y="0px"
	 width="100px" height="100px" viewBox="-11.89 -5.858 100 100" enable-background="new -11.89 -5.858 100 100"
	 xml:space="preserve">
<path d="M88.11,44.142c0,27.537-22.46,50-50,50c-27.689,0-50-22.463-50-50c0-27.695,22.311-50,50-50
	C65.65-5.858,88.11,16.449,88.11,44.142z M77.032,43.987c0-21.537-17.385-38.922-38.922-38.922S-0.967,22.45-0.967,43.987
	c0,21.538,17.54,39.077,39.077,39.077S77.032,65.524,77.032,43.987z M8.571,40.911c1.541,0,2.927,1.383,2.927,2.921
	c0,1.538-1.386,2.924-2.927,2.924c-1.535,0-2.921-1.386-2.921-2.924C5.649,42.294,7.035,40.911,8.571,40.911z M52.883,39.063H39.497
	L23.498,21.527c-4.926-4.926-12.773,2.46-8.002,7.538L33.19,48.294c0.922,1.231,2.309,1.847,3.998,1.847h15.695
	C59.647,50.142,60.415,39.063,52.883,39.063z M17.804,62.448c1.541,0,2.921,1.384,2.921,2.925c0,1.537-1.38,2.921-2.921,2.921
	s-2.927-1.384-2.927-2.921C14.877,63.832,16.263,62.448,17.804,62.448z M37.801,70.447c1.541,0,2.928,1.387,2.928,2.925
	s-1.387,2.921-2.928,2.921c-1.535,0-2.921-1.383-2.921-2.921S36.266,70.447,37.801,70.447z M37.955,11.833
	c1.542,0,2.927,1.386,2.927,2.924s-1.386,2.921-2.927,2.921c-1.535,0-2.921-1.383-2.921-2.921S36.421,11.833,37.955,11.833z
	 M58.416,19.832c1.541,0,2.928,1.386,2.928,2.924s-1.387,2.924-2.928,2.924c-1.535,0-2.921-1.386-2.921-2.924
	S56.881,19.832,58.416,19.832z M59.344,61.526c1.534,0,2.921,1.383,2.921,2.921c0,1.541-1.387,2.925-2.921,2.925
	c-1.541,0-2.928-1.384-2.928-2.925C56.417,62.909,57.803,61.526,59.344,61.526z M67.495,40.911c1.541,0,2.921,1.383,2.921,2.921
	c0,1.538-1.38,2.924-2.921,2.924c-1.535,0-2.921-1.386-2.921-2.924C64.574,42.294,65.96,40.911,67.495,40.911z"/>
</svg>
